<svg id="Capa_1" enable-background="new 0 0 512 512" height="512" viewBox="0 0 512 512" width="512" xmlns="http://www.w3.org/2000/svg"><g><g><g><path d="m52.554 383.919c69.958 69.958 203.455 49.886 203.455 49.886l-93.206-134.382-160.135-118.959s-20.072 133.497 49.886 203.455z" fill="#5a781e"/><path d="m2.668 180.464 253.341 253.341s20.072-133.497-49.886-203.455c-69.958-69.959-203.455-49.886-203.455-49.886z" fill="#355e16"/></g><g><path d="m459.446 383.919c-69.958 69.958-203.455 49.886-203.455 49.886l93.206-134.382 160.135-118.959s20.072 133.497-49.886 203.455z" fill="#9ebc2c"/><path d="m509.332 180.464-253.341 253.341s-20.072-133.497 49.886-203.455c69.958-69.959 203.455-49.886 203.455-49.886z" fill="#d0e95a"/></g></g><g><g><path d="m147.41 254.666c0 98.936 108.59 179.139 108.59 179.139l29.116-160.929-29.116-197.349s-108.59 80.203-108.59 179.139z" fill="#9ebc2c"/><path d="m256 75.527v358.278s108.59-80.203 108.59-179.139-108.59-179.139-108.59-179.139z" fill="#5a781e"/></g></g></g></svg>