<svg id="Capa_1" enable-background="new 0 0 511.86 511.86" height="512" viewBox="0 0 511.86 511.86" width="512" xmlns="http://www.w3.org/2000/svg"><g><path d="m127.168 247.16c0-16.904 2.837-34.252 8.377-51.777-40.419-15.317-85.095-17.217-114.163-16.313l111.791 111.791c-3.98-14.777-6.005-29.397-6.005-43.701z"/><path d="m378.688 290.862 111.792-111.793c-29.065-.903-73.743.997-114.164 16.314 5.54 17.525 8.377 34.873 8.377 51.777 0 14.304-2.026 28.925-6.005 43.702z"/><path d="m.182 200.297c-1.333 43.534 3.616 122.075 50.413 168.872 45.597 45.597 120.986 51.51 165.121 50.547-8.682-8.409-215.534-219.419-215.534-219.419z"/><path d="m511.678 200.298s-206.821 210.978-215.491 219.379c44.176.922 119.609-5.037 165.08-50.507 46.794-46.797 51.744-125.333 50.411-168.872z"/><path d="m354.693 247.16c0-66.364-52.038-125.329-83.763-155.108v306.568l38.201-38.201c23.896-30.831 45.562-70.557 45.562-113.259z"/><path d="m157.168 247.16c0 42.603 21.448 82.154 45.199 112.896l38.563 38.563v-306.516c-31.726 29.842-83.762 88.878-83.762 155.057z"/></g></svg>